 <svg  version="1.0" xmlns="http://www.w3.org/2000/svg"  width="237.000000pt" height="78.000000pt" viewBox="0 0 237.000000 78.000000"  preserveAspectRatio="xMidYMid meet">  <g transform="translate(0.000000,78.000000) scale(0.100000,-0.100000)" fill="#ffdb70" stroke="none"> <path d="M970 400 l0 -170 34 0 35 0 -2 170 -1 170 -33 0 -33 0 0 -170z"/> <path d="M170 391 l0 -161 35 0 35 0 0 61 c0 57 1 60 22 57 19 -2 79 -76 91 -111 1 -5 19 -7 39 -5 l37 3 -35 55 c-19 30 -44 62 -56 71 l-21 16 27 7 c32 8 57 57 49 98 -9 49 -35 61 -133 66 l-90 4 0 -161z m144 93 c9 -8 16 -22 16 -30 0 -22 -38 -54 -65 -54 -23 0 -25 3 -25 50 0 49 1 50 29 50 16 0 37 -7 45 -16z"/> <path d="M1420 528 c-59 -31 -82 -65 -88 -131 -5 -63 12 -105 57 -137 38 -26 113 -36 169 -21 l42 12 0 79 0 80 -65 0 -65 0 0 -29 c0 -28 2 -29 35 -24 35 6 35 5 35 -31 l0 -36 -45 0 c-64 0 -95 31 -95 95 0 38 5 52 29 76 24 24 38 29 76 29 25 0 55 -5 66 -10 17 -10 19 -7 19 23 0 31 -4 35 -31 41 -56 11 -94 6 -139 -16z"/> <path d="M504 450 c-64 -26 -88 -137 -40 -185 28 -28 85 -41 129 -28 25 7 33 15 35 38 3 24 1 28 -9 18 -17 -16 -91 -17 -107 -1 -29 29 -13 38 63 38 66 0 75 2 75 19 0 81 -72 131 -146 101z m67 -40 c36 -20 23 -40 -26 -40 -50 0 -57 11 -23 34 27 19 24 19 49 6z"/> <path d="M690 305 l0 -155 36 0 35 0 -6 55 c-8 58 -3 64 29 40 61 -46 136 18 136 115 0 33 -6 48 -29 71 -34 34 -68 37 -104 9 -14 -11 -28 -20 -32 -20 -3 0 -3 9 0 20 6 17 2 20 -29 20 l-36 0 0 -155z m156 80 c24 -36 8 -86 -30 -100 -24 -8 -31 -6 -47 14 -25 30 -24 66 1 91 27 27 56 25 76 -5z"/> <path d="M1073 448 c3 -7 25 -59 48 -115 42 -100 42 -102 25 -128 -13 -20 -24 -26 -42 -22 -18 3 -24 0 -24 -14 0 -16 8 -19 50 -19 60 0 63 3 120 155 23 61 46 120 51 133 8 20 6 22 -24 22 -32 0 -33 -1 -56 -85 -23 -82 -41 -109 -41 -62 0 12 -9 49 -19 82 -18 58 -20 60 -56 63 -28 3 -36 0 -32 -10z"/> <path d="M1714 450 c-36 -14 -64 -59 -64 -102 0 -85 54 -127 146 -113 37 5 44 10 44 29 0 22 -3 23 -44 19 -47 -6 -86 9 -86 32 0 12 16 15 75 15 74 0 75 0 75 25 0 77 -73 125 -146 95z m67 -40 c36 -20 23 -40 -26 -40 -50 0 -57 11 -23 34 27 19 24 19 49 6z"/> <path d="M1905 345 l0 -115 33 0 32 0 0 80 c0 76 1 81 25 92 42 19 55 -2 55 -93 l0 -79 36 0 36 0 -4 96 c-3 86 -5 98 -27 115 -30 24 -62 24 -94 -1 -14 -11 -27 -20 -30 -20 -3 0 -3 9 0 20 5 17 0 20 -28 20 l-34 0 0 -115z"/> </g> </svg> 